<?xml version="1.0" encoding="UTF-8"?>
<svg id="Layer_2" data-name="Layer 2" xmlns="http://www.w3.org/2000/svg" xmlns:xlink="http://www.w3.org/1999/xlink" viewBox="0 0 163.77 185.65">
  <defs>
    <style>
      .cls-1 {
        fill: url(#linear-gradient-23);
        stroke-width: 4px;
      }

      .cls-1, .cls-2, .cls-3, .cls-4, .cls-5, .cls-6, .cls-7, .cls-8, .cls-9, .cls-10, .cls-11, .cls-12, .cls-13, .cls-14, .cls-15, .cls-16, .cls-17, .cls-18, .cls-19, .cls-20, .cls-21, .cls-22, .cls-23, .cls-24, .cls-25, .cls-26 {
        stroke: #000;
        stroke-miterlimit: 10;
      }

      .cls-2 {
        fill: url(#linear-gradient);
      }

      .cls-27 {
        stroke-width: 0px;
      }

      .cls-27, .cls-5 {
        fill: #000;
      }

      .cls-3 {
        fill: url(#linear-gradient-4);
      }

      .cls-4 {
        fill: url(#linear-gradient-17);
      }

      .cls-4, .cls-7, .cls-11, .cls-12, .cls-18, .cls-19, .cls-20, .cls-22 {
        stroke-width: 2px;
      }

      .cls-5 {
        stroke-width: .89px;
      }

      .cls-6 {
        fill: url(#linear-gradient-12);
      }

      .cls-6, .cls-9, .cls-10, .cls-13, .cls-14, .cls-21, .cls-24, .cls-25 {
        stroke-width: 1.5px;
      }

      .cls-7 {
        fill: url(#linear-gradient-20);
      }

      .cls-8 {
        fill: url(#linear-gradient-2);
      }

      .cls-9 {
        fill: url(#linear-gradient-9);
      }

      .cls-10 {
        fill: url(#linear-gradient-11);
      }

      .cls-11 {
        fill: url(#linear-gradient-15);
      }

      .cls-12 {
        fill: url(#linear-gradient-14);
      }

      .cls-13 {
        fill: url(#linear-gradient-10);
      }

      .cls-14 {
        fill: url(#linear-gradient-8);
      }

      .cls-15 {
        fill: url(#linear-gradient-3);
      }

      .cls-16 {
        fill: #dd433b;
      }

      .cls-16, .cls-17, .cls-23, .cls-26 {
        stroke-width: 1.69px;
      }

      .cls-17 {
        fill: none;
      }

      .cls-18 {
        fill: url(#linear-gradient-19);
      }

      .cls-19 {
        fill: url(#linear-gradient-13);
      }

      .cls-20 {
        fill: url(#linear-gradient-16);
      }

      .cls-21 {
        fill: url(#linear-gradient-7);
      }

      .cls-22 {
        fill: url(#linear-gradient-18);
      }

      .cls-23 {
        fill: url(#linear-gradient-21);
      }

      .cls-24 {
        fill: url(#linear-gradient-6);
      }

      .cls-25 {
        fill: url(#linear-gradient-5);
      }

      .cls-26 {
        fill: url(#linear-gradient-22);
      }
    </style>
    <linearGradient id="linear-gradient" x1="33.28" y1="101.18" x2="26.69" y2="134.73" gradientUnits="userSpaceOnUse">
      <stop offset="0" stop-color="#fd836b"/>
      <stop offset="1" stop-color="#fff"/>
    </linearGradient>
    <linearGradient id="linear-gradient-2" x1="35.66" y1="69.3" x2="46.43" y2="90.26" gradientUnits="userSpaceOnUse">
      <stop offset="0" stop-color="#da433c"/>
      <stop offset="1" stop-color="#ff8666"/>
    </linearGradient>
    <linearGradient id="linear-gradient-3" x1="115.15" y1="101.18" x2="108.56" y2="134.73" gradientTransform="translate(244.2) rotate(-180) scale(1 -1)" xlink:href="#linear-gradient"/>
    <linearGradient id="linear-gradient-4" x1="117.53" y1="69.3" x2="128.3" y2="90.26" gradientTransform="translate(244.2) rotate(-180) scale(1 -1)" xlink:href="#linear-gradient-2"/>
    <linearGradient id="linear-gradient-5" x1="91.53" y1="-7.99" x2="113.33" y2="33.91" gradientTransform="translate(-43.46 65.25) rotate(40.08) scale(.69 1)" xlink:href="#linear-gradient"/>
    <linearGradient id="linear-gradient-6" x1="82.31" y1="-30.04" x2="93.95" y2="-7.38" gradientTransform="translate(-43.46 65.25) rotate(40.08) scale(.69 1)" xlink:href="#linear-gradient-2"/>
    <linearGradient id="linear-gradient-7" x1="82.7" y1="-34.28" x2="111.81" y2="-34.28" gradientTransform="translate(-43.46 65.25) rotate(40.08) scale(.69 1)" xlink:href="#linear-gradient-2"/>
    <linearGradient id="linear-gradient-8" x1="93.06" y1="-39.78" x2="152.96" y2="-39.78" gradientTransform="translate(-43.46 65.25) rotate(40.08) scale(.69 1)" gradientUnits="userSpaceOnUse">
      <stop offset="0" stop-color="#da433c"/>
      <stop offset=".63" stop-color="#ff8666"/>
      <stop offset="1" stop-color="#f2f2f2"/>
    </linearGradient>
    <linearGradient id="linear-gradient-9" x1="185.31" y1="-62.16" x2="207.12" y2="-20.27" gradientTransform="translate(290.41 65.25) rotate(139.92) scale(.69 -1)" xlink:href="#linear-gradient"/>
    <linearGradient id="linear-gradient-10" x1="176.09" y1="-84.21" x2="187.73" y2="-61.55" gradientTransform="translate(290.41 65.25) rotate(139.92) scale(.69 -1)" xlink:href="#linear-gradient-2"/>
    <linearGradient id="linear-gradient-11" x1="176.49" y1="-88.46" x2="205.59" y2="-88.46" gradientTransform="translate(290.41 65.25) rotate(139.92) scale(.69 -1)" xlink:href="#linear-gradient-2"/>
    <linearGradient id="linear-gradient-12" x1="186.84" y1="-93.96" x2="246.74" y2="-93.96" gradientTransform="translate(290.41 65.25) rotate(139.92) scale(.69 -1)" xlink:href="#linear-gradient-8"/>
    <linearGradient id="linear-gradient-13" x1="5.38" y1="154.32" x2="23.07" y2="188.32" xlink:href="#linear-gradient"/>
    <linearGradient id="linear-gradient-14" x1="2.15" y1="132.04" x2="12.93" y2="153.02" xlink:href="#linear-gradient-2"/>
    <linearGradient id="linear-gradient-15" x1="6.41" y1="124.33" x2="23.54" y2="124.33" xlink:href="#linear-gradient-2"/>
    <linearGradient id="linear-gradient-16" x1="17.12" y1="111.41" x2="61.15" y2="111.41" gradientTransform="matrix(1,0,0,1,0,0)" xlink:href="#linear-gradient-8"/>
    <linearGradient id="linear-gradient-17" x1="94.06" y1="154.32" x2="111.75" y2="188.32" gradientTransform="translate(252.45) rotate(-180) scale(1 -1)" xlink:href="#linear-gradient"/>
    <linearGradient id="linear-gradient-18" x1="90.84" y1="132.04" x2="101.62" y2="153.02" gradientTransform="translate(252.45) rotate(-180) scale(1 -1)" xlink:href="#linear-gradient-2"/>
    <linearGradient id="linear-gradient-19" x1="95.1" y1="124.33" x2="112.23" y2="124.33" gradientTransform="translate(252.45) rotate(-180) scale(1 -1)" xlink:href="#linear-gradient-2"/>
    <linearGradient id="linear-gradient-20" x1="105.81" y1="111.41" x2="149.84" y2="111.41" gradientTransform="translate(252.45) rotate(-180) scale(1 -1)" xlink:href="#linear-gradient-8"/>
    <linearGradient id="linear-gradient-21" x1="142" y1="64.99" x2="107.95" y2="38.79" gradientTransform="translate(253.83) rotate(-180) scale(1 -1)" gradientUnits="userSpaceOnUse">
      <stop offset="0" stop-color="#da433c"/>
      <stop offset=".92" stop-color="#ff8666"/>
    </linearGradient>
    <linearGradient id="linear-gradient-22" x1="50.93" y1="64.99" x2="16.87" y2="38.79" gradientTransform="matrix(1,0,0,1,0,0)" xlink:href="#linear-gradient-21"/>
    <linearGradient id="linear-gradient-23" x1="81.38" y1="30.46" x2="81.38" y2="120.21" gradientTransform="matrix(1,0,0,1,0,0)" xlink:href="#linear-gradient-8"/>
  </defs>
  <g id="Layer_2-2" data-name="Layer 2">
    <g>
      <g>
        <path class="cls-2" d="M31.99,87.25s-7.56,14.53-.12,45.6c0,0-1.47-26.57,5.13-38.25l-5.01-7.36Z"/>
        <path class="cls-8" d="M40.78,67.03s-11.6,17.05-8.5,23.95c3.1,6.9,7.24,2.57,7.24,2.57,0,0,10.56-13.53,9.98-23.55s-8.73-2.98-8.73-2.98Z"/>
      </g>
      <g>
        <path class="cls-15" d="M130.34,87.25s7.56,14.53.12,45.6c0,0,1.47-26.57-5.13-38.25l5.01-7.36Z"/>
        <path class="cls-3" d="M121.55,67.03s11.6,17.05,8.5,23.95c-3.1,6.9-7.24,2.57-7.24,2.57,0,0-10.56-13.53-9.98-23.55.57-10.01,8.73-2.98,8.73-2.98Z"/>
      </g>
      <g>
        <path class="cls-25" d="M7,95.25S-.31,122.65,1.76,132.86c0,0,6.59-31.17,10.7-39.19,4.11-8.02-5.46,1.59-5.46,1.59Z"/>
        <path class="cls-24" d="M20.54,78.85s-12.4,7.86-14.13,15.6,1.93,6.44,1.93,6.44c0,0,10.41-5.45,14.57-14.38,4.16-8.93-2.38-7.66-2.38-7.66Z"/>
        <path class="cls-21" d="M35.45,71.79c-1.9-.2-8.52-.39-14.7,5.39-1.03.96-1.71,2.99-1.54,4.58.33,3.26.99,8.28,1.89,8.17,1.32-.16,9.63-3,15.06-1.45,4.53,1.29,1.13-14.14.16-16.02-.21-.4-.51-.63-.86-.67Z"/>
        <path class="cls-14" d="M59.41,91.7s-2.65-1.08-3.85-2.74-12.1-20.69-19.57-17.93c-7.47,2.77-.03,18.35,2.45,22.22,4.65,7.22,10.53,12.6,23.84,6.79s-2.88-8.35-2.88-8.35Z"/>
      </g>
      <g>
        <path class="cls-9" d="M155.8,95.25s7.31,27.4,5.24,37.6c0,0-6.59-31.17-10.7-39.19-4.11-8.02,5.46,1.59,5.46,1.59Z"/>
        <path class="cls-13" d="M142.26,78.85s12.4,7.86,14.13,15.6-1.93,6.44-1.93,6.44c0,0-10.41-5.45-14.57-14.38s2.38-7.66,2.38-7.66Z"/>
        <path class="cls-10" d="M127.36,71.79c1.9-.2,8.52-.39,14.7,5.39,1.03.96,1.71,2.99,1.54,4.58-.33,3.26-.99,8.28-1.89,8.17-1.32-.16-9.63-3-15.06-1.45-4.53,1.29-1.13-14.14-.16-16.02.21-.4.51-.63.86-.67Z"/>
        <path class="cls-6" d="M103.4,91.7s2.65-1.08,3.85-2.74,12.1-20.69,19.57-17.93c7.47,2.77.03,18.35-2.45,22.22-4.65,7.22-10.53,12.6-23.84,6.79s2.88-8.35,2.88-8.35Z"/>
      </g>
      <g>
        <path class="cls-19" d="M2.33,153.42s6.48,24.83,13.51,29.69c0,0-9.04-26.67-9.04-35.73s-4.48,6.04-4.48,6.04Z"/>
        <path class="cls-12" d="M7.28,130.17s-8.08,16.55-5.92,23.25,5.04,2.5,5.04,2.5c0,0,7.35-13.14,6.95-22.86s-6.08-2.89-6.08-2.89Z"/>
        <path class="cls-11" d="M18.16,111.85c-1.93,1.61-8.41,7.54-11.52,17.02-.52,1.58-.17,3.54.77,4.44,1.93,1.85,5.05,4.57,5.86,3.68,1.2-1.31,2.16-16.55,8.16-20.49,5.01-3.29-.24-4.64-2.11-4.99-.4-.08-.8.04-1.16.34Z"/>
        <path class="cls-20" d="M51.1,103.1s-3.09,1.71-5.06,1.71-21.88-2.63-27.72,6.04,11.59,14.06,12.07,13.93,17.64-2.76,27.61-18.79-6.9-2.89-6.9-2.89Z"/>
      </g>
      <g>
        <path class="cls-4" d="M161.44,153.42s-6.48,24.83-13.51,29.69c0,0,9.04-26.67,9.04-35.73,0-9.06,4.48,6.04,4.48,6.04Z"/>
        <path class="cls-22" d="M156.48,130.17s8.08,16.55,5.92,23.25-5.04,2.5-5.04,2.5c0,0-7.35-13.14-6.95-22.86s6.08-2.89,6.08-2.89Z"/>
        <path class="cls-18" d="M145.6,111.85c1.93,1.61,8.41,7.54,11.52,17.02.52,1.58.17,3.54-.77,4.44-1.93,1.85-5.05,4.57-5.86,3.68-1.2-1.31-2.16-16.55-8.16-20.49-5.01-3.29.24-4.64,2.11-4.99.4-.08.8.04,1.16.34Z"/>
        <path class="cls-7" d="M112.67,103.1s3.09,1.71,5.06,1.71,21.88-2.63,27.72,6.04c5.84,8.67-11.59,14.06-12.07,13.93s-17.64-2.76-27.61-18.79c-9.97-16.03,6.9-2.89,6.9-2.89Z"/>
      </g>
      <g>
        <path class="cls-16" d="M131.71,27.03l-.88,3.73s-1.2-21.36.88-26.49c0,0,4.24,13.43,6.64,16.7,2.4,3.26,2.4-13.62-1.04-18.1s15.11-4.1,7.76,28.45"/>
        <path class="cls-23" d="M115.24,66.02s10.9-16.38,12.12-22.68c.02-.12.03-.24.04-.36.09-1.79.88-16.52,3.43-17.92,2.06-1.13,10.32,1.86,14.2,3.38,1.1.43,1.65,1.86,1.18,3.1-1.72,4.61-5.51,14.65-6.19,15.44-.88,1.03-14.71,38.52-29.18,43-14.47,4.48,4.4-23.97,4.4-23.97Z"/>
        <path class="cls-17" d="M127.36,43.35s8.65,6.69,12.45,4.05"/>
      </g>
      <g>
        <path class="cls-16" d="M31.05,27.03l.88,3.73s1.2-21.36-.88-26.49c0,0-4.24,13.43-6.64,16.7s-2.4-13.62,1.04-18.1-15.11-4.1-7.76,28.45"/>
        <path class="cls-26" d="M47.52,66.02s-10.9-16.38-12.12-22.68c-.02-.12-.03-.24-.04-.36-.09-1.79-.88-16.52-3.43-17.92-2.06-1.13-10.32,1.86-14.2,3.38-1.1.43-1.65,1.86-1.18,3.1,1.72,4.61,5.51,14.65,6.19,15.44.88,1.03,14.71,38.52,29.18,43,14.47,4.48-4.4-23.97-4.4-23.97Z"/>
        <path class="cls-17" d="M35.4,43.35s-8.65,6.69-12.45,4.05"/>
      </g>
      <path class="cls-1" d="M69.14,42.14h24.47c12.75,0,23.1,10.35,23.1,23.1v10.54c0,21.46-17.42,38.87-38.87,38.87h0c-17.55,0-31.81-14.25-31.81-31.81v-17.61c0-12.75,10.35-23.1,23.1-23.1Z"/>
      <rect class="cls-27" x="58.69" y="20.21" width="7.68" height="17.6" rx="3.84" ry="3.84"/>
      <rect class="cls-27" x="97.5" y="20.21" width="7.68" height="17.6" rx="3.84" ry="3.84"/>
      <path class="cls-5" d="M95.65,64.54c-1.54,3.89-3.24,6.51-4.68,8.28-9.41,11.56-22.11,4.39-23.87,3.35l28.54-11.63Z"/>
    </g>
  </g>
</svg>