<?xml version="1.0" encoding="UTF-8"?>
<svg id="Layer_2" data-name="Layer 2" xmlns="http://www.w3.org/2000/svg" xmlns:xlink="http://www.w3.org/1999/xlink" viewBox="0 0 184.11 187.01">
  <defs>
    <style>
      .cls-1 {
        stroke-width: 0px;
      }

      .cls-1, .cls-2 {
        fill: #000;
      }

      .cls-3 {
        fill: url(#linear-gradient-7);
        stroke-width: 4px;
      }

      .cls-3, .cls-2, .cls-4, .cls-5, .cls-6, .cls-7, .cls-8, .cls-9, .cls-10 {
        stroke: #000;
        stroke-miterlimit: 10;
      }

      .cls-2 {
        stroke-width: .89px;
      }

      .cls-4 {
        fill: url(#linear-gradient);
      }

      .cls-4, .cls-6 {
        stroke-width: 2.69px;
      }

      .cls-5 {
        fill: url(#linear-gradient-4);
      }

      .cls-5, .cls-9 {
        stroke-width: 2.09px;
      }

      .cls-6 {
        fill: url(#linear-gradient-2);
      }

      .cls-7 {
        fill: url(#linear-gradient-6);
      }

      .cls-7, .cls-8 {
        stroke-width: 3.05px;
      }

      .cls-8 {
        fill: url(#linear-gradient-3);
      }

      .cls-9 {
        fill: url(#linear-gradient-5);
      }

      .cls-10 {
        fill: #dd433b;
        stroke-width: 4.13px;
      }
    </style>
    <linearGradient id="linear-gradient" x1="120.71" y1="104.79" x2="145.2" y2="151.85" gradientTransform="translate(5.65 -12.81) rotate(39.34) scale(1 .81)" gradientUnits="userSpaceOnUse">
      <stop offset="0" stop-color="#fd836b"/>
      <stop offset="1" stop-color="#fff"/>
    </linearGradient>
    <linearGradient id="linear-gradient-2" x2="145.2" y2="151.85" gradientTransform="translate(164.81 -12.81) rotate(140.66) scale(1 -.81)" xlink:href="#linear-gradient"/>
    <linearGradient id="linear-gradient-3" x1="160.89" y1="98.45" x2="190.44" y2="155.22" gradientTransform="translate(207.41 -3.77) rotate(146.07) scale(1 -.72)" xlink:href="#linear-gradient"/>
    <linearGradient id="linear-gradient-4" x1="122.38" y1="81.25" x2="142.56" y2="120.02" gradientTransform="translate(173.98 -16.57) rotate(130.84) scale(1 -.72)" xlink:href="#linear-gradient"/>
    <linearGradient id="linear-gradient-5" x1="117.65" y1="79.29" x2="137.83" y2="118.06" gradientTransform="translate(-.71 -13.85) rotate(46.65) scale(1 .72)" xlink:href="#linear-gradient"/>
    <linearGradient id="linear-gradient-6" x1="160.89" y1="98.45" x2="190.44" y2="155.22" gradientTransform="translate(-36.03 -3.77) rotate(33.93) scale(1 .72)" xlink:href="#linear-gradient"/>
    <linearGradient id="linear-gradient-7" x1="89.22" y1="43.24" x2="89.22" y2="132.99" gradientUnits="userSpaceOnUse">
      <stop offset="0" stop-color="#da433c"/>
      <stop offset=".63" stop-color="#ff8666"/>
      <stop offset="1" stop-color="#f2f2f2"/>
    </linearGradient>
  </defs>
  <g id="Layer_2-2" data-name="Layer 2">
    <g>
      <path class="cls-4" d="M43.34,122.95s-11.58,29.4-7.17,40.63l16.99-42.04-9.82,1.42Z"/>
      <path class="cls-6" d="M127.12,122.95s11.58,29.4,7.17,40.63l-16.99-42.04,9.82,1.42Z"/>
      <path class="cls-8" d="M116.53,137.53s8.23,33.16,1.2,45.46l-12.26-47.44,11.06,1.97Z"/>
      <path class="cls-5" d="M138.86,108.86s11.37,20.37,8.94,29.74l-16.59-29.05,7.64-.68Z"/>
      <path class="cls-9" d="M37.64,105.52s-10.46,20.85-7.63,30.1l15.3-29.75-7.67-.35Z"/>
      <path class="cls-7" d="M54.85,137.53s-8.23,33.16-1.2,45.46l12.26-47.44-11.06,1.97Z"/>
      <path class="cls-10" d="M131.22,55.46s14.36-41.03,24.44-50.09c0,0-5.1,34.11-3.32,43.87,1.77,9.76,19.9-27.4,17.14-40.94-2.76-13.55,37.66,7.19-13.48,70.94l-24.78-23.78Z"/>
      <path class="cls-10" d="M45.3,64.01s-4.46-43.24-12.17-54.39c0,0-2.94,34.36-6.93,43.45-3.99,9.08-13.02-31.26-7.2-43.8s-38.31-1.72-3.32,72.13l29.61-17.4Z"/>
      <path class="cls-3" d="M76.99,54.92h24.47c12.75,0,23.1,10.35,23.1,23.1v10.54c0,21.46-17.42,38.87-38.87,38.87h0c-17.55,0-31.81-14.25-31.81-31.81v-17.61c0-12.75,10.35-23.1,23.1-23.1Z"/>
      <rect class="cls-1" x="66.53" y="32.99" width="7.68" height="17.6" rx="3.84" ry="3.84"/>
      <rect class="cls-1" x="105.34" y="32.99" width="7.68" height="17.6" rx="3.84" ry="3.84"/>
      <path class="cls-2" d="M103.5,77.32c-1.54,3.89-3.24,6.51-4.68,8.28-9.41,11.56-22.11,4.39-23.87,3.35l28.54-11.63Z"/>
    </g>
  </g>
</svg>