<?xml version="1.0" encoding="UTF-8"?>
<svg id="Layer_2" data-name="Layer 2" xmlns="http://www.w3.org/2000/svg" viewBox="0 0 213.33 289.56">
  <defs>
    <style>
      .cls-1 {
        fill: #b2b2b2;
        stroke-width: 0px;
      }

      .cls-2 {
        fill: none;
        stroke: #b2b2b2;
        stroke-miterlimit: 10;
        stroke-width: 15px;
      }
    </style>
  </defs>
  <g id="Layer_2-2" data-name="Layer 2">
    <path class="cls-1" d="m184.4,47.23c2.32,27.24,3.73,54.56,4.84,81.87,1.1,27.29,1.8,54.58,2.2,81.87v.84s-.22.92-.22.92c-1.43,5.39-3.32,10.53-5.52,15.62-22.3,52.05-68.83,74.38-122.46,53.34-29.96-12-52.2-39.04-61.69-69.43-.23-.83-.56-1.78-.72-2.72-1.4-16.37-1.04-32.83,1.17-49.1,2.35-16.02,6.5-32.39,15.92-45.79-3.67,7.16-5.99,14.83-7.6,22.67-4.43,23.33-3.44,47.56-.07,70.93,0,0-.13-.63-.13-.63,0,0,.57,1.59.57,1.59,14.33,36.62,45.59,63.34,85.59,65.46,41.62,3.19,69.46-28.56,81.29-65.47.03-44.99,2.66-110.36,6.82-161.97h0Z"/>
    <circle class="cls-2" cx="184.4" cy="28.94" r="21.44"/>
  </g>
</svg>