<?xml version="1.0" encoding="UTF-8"?>
<svg id="Layer_2" data-name="Layer 2" xmlns="http://www.w3.org/2000/svg" xmlns:xlink="http://www.w3.org/1999/xlink" viewBox="0 0 195.47 187.01">
  <defs>
    <style>
      .cls-1 {
        stroke-width: 0px;
      }

      .cls-1, .cls-2 {
        fill: #000;
      }

      .cls-3 {
        fill: url(#linear-gradient-7);
        stroke-width: 4px;
      }

      .cls-3, .cls-4, .cls-2, .cls-5, .cls-6, .cls-7, .cls-8, .cls-9, .cls-10 {
        stroke: #000;
        stroke-miterlimit: 10;
      }

      .cls-4 {
        fill: url(#linear-gradient-6);
      }

      .cls-4, .cls-9 {
        stroke-width: 3.05px;
      }

      .cls-2 {
        stroke-width: .89px;
      }

      .cls-5 {
        fill: url(#linear-gradient);
      }

      .cls-5, .cls-6 {
        stroke-width: 2.52px;
      }

      .cls-6 {
        fill: url(#linear-gradient-2);
      }

      .cls-7 {
        fill: url(#linear-gradient-5);
      }

      .cls-7, .cls-10 {
        stroke-width: 2.09px;
      }

      .cls-8 {
        fill: #dd433b;
        stroke-width: 4.13px;
      }

      .cls-9 {
        fill: url(#linear-gradient-3);
      }

      .cls-10 {
        fill: url(#linear-gradient-4);
      }
    </style>
    <linearGradient id="linear-gradient" x1="134.18" y1="111.07" x2="158.67" y2="158.13" gradientTransform="translate(172.12 -17.85) rotate(133.44) scale(1 -.71)" gradientUnits="userSpaceOnUse">
      <stop offset="0" stop-color="#fd836b"/>
      <stop offset="1" stop-color="#fff"/>
    </linearGradient>
    <linearGradient id="linear-gradient-2" x1="134.18" y1="111.07" x2="158.67" y2="158.13" gradientTransform="translate(22.43 -17.85) rotate(46.56) scale(1 .71)" xlink:href="#linear-gradient"/>
    <linearGradient id="linear-gradient-3" x1="175.44" y1="95.46" x2="204.99" y2="152.23" gradientTransform="translate(228.19 -10.11) rotate(146.07) scale(1 -.72)" xlink:href="#linear-gradient"/>
    <linearGradient id="linear-gradient-4" x1="129.01" y1="79.29" x2="149.19" y2="118.06" gradientTransform="translate(2.85 -22.12) rotate(46.65) scale(1 .72)" xlink:href="#linear-gradient"/>
    <linearGradient id="linear-gradient-5" x1="128.17" y1="87.61" x2="148.35" y2="126.37" gradientTransform="translate(188.95 -22.12) rotate(133.35) scale(1 -.72)" xlink:href="#linear-gradient"/>
    <linearGradient id="linear-gradient-6" x1="178.52" y1="92.57" x2="208.07" y2="149.34" gradientTransform="translate(-34.1 -10.11) rotate(33.93) scale(1 .72)" xlink:href="#linear-gradient"/>
    <linearGradient id="linear-gradient-7" x1="100.58" y1="43.24" x2="100.58" y2="132.99" gradientUnits="userSpaceOnUse">
      <stop offset="0" stop-color="#da433c"/>
      <stop offset=".63" stop-color="#ff8666"/>
      <stop offset="1" stop-color="#f2f2f2"/>
    </linearGradient>
  </defs>
  <g id="Layer_2-2" data-name="Layer 2">
    <g>
      <path class="cls-5" d="M138.38,127.43s12.45,25.13,8.95,36.31l-18.2-35.85,9.25-.46Z"/>
      <path class="cls-6" d="M56.18,127.43s-12.45,25.13-8.95,36.31l18.2-35.85-9.25-.46Z"/>
      <path class="cls-9" d="M124.05,137.53s8.23,33.16,1.2,45.46l-12.26-47.44,11.06,1.97Z"/>
      <path class="cls-10" d="M49,105.52s-10.46,20.85-7.63,30.1l15.3-29.75-7.67-.35Z"/>
      <path class="cls-7" d="M147.72,109s10.46,20.85,7.63,30.1l-15.3-29.75,7.67-.35Z"/>
      <path class="cls-4" d="M73.76,137.53s-8.23,33.16-1.2,45.46l12.26-47.44-11.06,1.97Z"/>
      <path class="cls-8" d="M142.58,55.46s14.36-41.03,24.44-50.09c0,0-5.1,34.11-3.32,43.87,1.77,9.76,19.9-27.4,17.14-40.94-2.76-13.55,37.66,7.19-13.48,70.94l-24.78-23.78Z"/>
      <path class="cls-8" d="M52.89,55.46S38.54,14.43,28.45,5.37c0,0,5.1,34.11,3.32,43.87-1.77,9.76-19.9-27.4-17.14-40.94,2.76-13.55-37.66,7.19,13.48,70.94l24.78-23.78Z"/>
      <path class="cls-3" d="M97.05,127.44h0c-17.49,0-31.81-14.31-31.81-31.81v-17.61c0-12.71,10.4-23.1,23.1-23.1h24.47c12.71,0,23.1,10.4,23.1,23.1v10.54c0,21.38-17.49,38.87-38.87,38.87Z"/>
      <rect class="cls-1" x="77.89" y="32.99" width="7.68" height="17.6" rx="3.84" ry="3.84"/>
      <rect class="cls-1" x="116.7" y="32.99" width="7.68" height="17.6" rx="3.84" ry="3.84"/>
      <path class="cls-2" d="M114.86,77.32c-1.54,3.89-3.24,6.51-4.68,8.28-9.41,11.56-22.11,4.39-23.87,3.35l28.54-11.63Z"/>
    </g>
  </g>
</svg>